Coordinates
version=1
nRows=36
nColumns=13
inDegrees=yes

Units are S.I. units (second, meters, Newtons, ...)
If the header above contains a line with 'inDegrees', this indicates whether rotational values are in degrees (yes) or radians (no).

endheader
time	bJoint_3	seatpos	hipangle	kneeangle	footangle	lbackangle	uarmleft_out	uarmleft_trn	uarmleft_up	uarmright_out	uarmright_trn	uarmright_up
      1.74000000	      0.00000000	     -0.10607693	     67.27417613	     54.61060395	     31.88478008	     -9.28249209	     21.25035821	     31.92124868	     -0.00000000	     26.15518646	     32.31871053	     -0.00000000
      1.74500000	      0.00000000	     -0.10912657	     66.85178460	     55.42407773	     32.27586232	     -8.87999746	     20.74963669	     31.72617959	     -0.00000000	     25.78651281	     32.39290409	     -0.00000000
      1.75000000	      0.00000000	     -0.11214886	     66.43897892	     56.21952954	     32.65850845	     -8.51718574	     20.23208140	     31.66049379	     -0.00000000	     25.25584123	     32.15897070	     -0.00000000
      1.75500000	      0.00000000	     -0.11520738	     66.02685118	     57.01411087	     33.04096205	     -8.09143545	     19.72286876	     31.66972836	     -0.00000000	     24.74821789	     32.17163195	     -0.00000000
      1.76000000	      0.00000000	     -0.11808456	     65.64411844	     57.75241126	     33.39652971	     -7.70425522	     19.39080993	     31.39373029	     -0.00000000	     24.19521735	     32.12772540	     -0.00000000
      1.76500000	      0.00000000	     -0.12215573	     65.11041393	     58.78257564	     33.89298956	     -7.37758368	     18.97346803	     31.39004009	     -0.00000000	     23.77690212	     31.95329978	     -0.00000000
      1.77000000	      0.00000000	     -0.12507710	     64.73287951	     59.51174888	     34.24462840	     -6.94814517	     18.42783295	     31.21922500	     -0.00000000	     23.23138226	     31.96239266	     -0.00000000
      1.77500000	      0.00000000	     -0.12812915	     64.34310728	     60.26495335	     34.60806064	     -6.58645409	     17.88503324	     30.98564688	     -0.00000000	     22.54435376	     31.64557509	     -0.00000000
      1.78000000	     -0.00000000	     -0.13102615	     63.97737756	     60.97206518	     34.94944274	     -6.12799119	     17.20914952	     30.92965683	     -0.00000000	     21.98839469	     31.68712992	     -0.00000000
      1.78500000	      0.00000000	     -0.13513310	     63.46569448	     61.96196970	     35.42766418	     -5.80271812	     16.77352702	     30.75541600	     -0.00000000	     21.42219273	     31.42799875	     -0.00000000
      1.79000000	     -0.00000000	     -0.13806266	     63.10538978	     62.65944220	     35.76483198	     -5.36951484	     16.08709641	     30.50029534	     -0.00000000	     20.85010120	     31.27201464	     -0.00000000
      1.79500000	      0.00000000	     -0.14210987	     62.61378004	     63.61166570	     36.22544574	     -5.08257156	     15.63613822	     30.27827379	     -0.00000000	     20.26103218	     31.14268812	     -0.00000000
      1.80000000	      0.00000000	     -0.14501700	     62.26490301	     64.28782772	     36.55273073	     -4.62377304	     15.14429440	     30.00330692	     -0.00000000	     19.54858973	     30.92515238	     -0.00000000
      1.80500000	      0.00000000	     -0.14916606	     61.77289548	     65.24196938	     37.01486486	     -4.29227909	     14.58265116	     29.75014048	     -0.00000000	     19.30113577	     30.71303014	     -0.00000000
      1.81000000	      0.00000000	     -0.15209788	     61.42927900	     65.90874324	     37.33802224	     -3.84464133	     13.87061754	     29.51506204	     -0.00000000	     18.57630835	     30.48771240	     -0.00000000
      1.81500000	      0.00000000	     -0.15598717	     60.97842322	     66.78412065	     37.76254387	     -3.47790613	     13.26683756	     29.27822917	     -0.00000000	     17.95929406	     30.25945152	     -0.00000000
      1.82000000	      0.00000000	     -0.15922437	     60.60734578	     67.50503997	     38.11238575	     -3.06631186	     12.78942171	     28.80798703	     -0.00000000	     17.25798977	     30.02309149	     -0.00000000
      1.82500000	      0.00000000	     -0.16314355	     60.16300191	     68.36882671	     38.53182862	     -2.71243053	     12.18111850	     28.56128092	     -0.00000000	     16.63451109	     29.60582006	     -0.00000000
      1.83000000	     -0.00000000	     -0.16701098	     59.72961297	     69.21187775	     38.94149071	     -2.31820138	     11.55344989	     28.35347858	     -0.00000000	     16.08036704	     29.26797030	     -0.00000000
      1.83500000	      0.00000000	     -0.16999008	     59.39910173	     69.85518190	     39.25428363	     -1.88456967	     10.81667953	     27.92914546	     -0.00000000	     15.33028497	     29.03530398	     -0.00000000
      1.84000000	      0.00000000	     -0.17423999	     58.93245272	     70.76402468	     39.69647740	     -1.55115061	     10.34055506	     27.38099294	     -0.00000000	     14.73465801	     28.62475608	     -0.00000000
      1.84500000	     -0.00000000	     -0.17815857	     58.50707295	     71.59307161	     40.10014456	     -1.17973490	      9.70869624	     27.15425851	     -0.00000000	     13.97447846	     28.14082793	     -0.00000000
      1.85000000	      0.00000000	     -0.18208754	     58.08510814	     72.41601708	     40.50112522	     -0.81547964	      9.07556385	     26.73793898	     -0.00000000	     13.53117586	     27.86787297	     -0.00000000
      1.85500000	     -0.00000000	     -0.18508214	     57.76645582	     73.03784578	     40.80430160	     -0.34927797	      8.41495412	     26.22572894	     -0.00000000	     12.64024853	     27.40719617	     -0.00000000
      1.86000000	     -0.00000000	     -0.18915737	     57.33680590	     73.87679037	     41.21359627	      0.05016939	      7.77046483	     25.85564410	     -0.00000000	     11.88079163	     26.96626261	     -0.00000000
      1.86500000	      0.00000000	     -0.19311191	     56.92414843	     74.68311563	     41.60726407	      0.42192245	      7.02497310	     25.36611006	     -0.00000000	     11.42289546	     26.52310546	     -0.00000000
      1.87000000	      0.00000000	     -0.19706452	     56.51575959	     75.48164902	     41.99740861	      0.80132175	      6.47920502	     24.66282510	     -0.00000000	     10.64640254	     26.05185688	     -0.00000000
      1.87500000	      0.00000000	     -0.20102657	     56.11035022	     76.27490491	     42.38525513	      1.17301188	      5.82154472	     24.25290452	     -0.00000000	     10.07084275	     25.53191259	     -0.00000000
      1.88000000	      0.00000000	     -0.20514774	     55.69273417	     77.09262561	     42.78535978	      1.58813604	      5.26332050	     23.78459953	     -0.00000000	      9.29371889	     24.92345158	     -0.00000000
      1.88500000	     -0.00000000	     -0.20913982	     55.29204240	     77.87776983	     43.16981223	      1.95968378	      4.50804283	     23.11202265	     -0.00000000	      8.51491292	     24.44819076	     -0.00000000
      1.89000000	      0.00000000	     -0.21313727	     54.89448773	     78.65732028	     43.55180801	      2.34080279	      3.94925147	     22.41683331	     -0.00000000	      7.92926952	     23.75674940	     -0.00000000
      1.89500000	      0.00000000	     -0.21730323	     54.48397777	     79.46286227	     43.94684004	      2.75563210	      3.17581584	     21.98472346	     -0.00000000	      7.14298896	     23.33460789	     -0.00000000
      1.90000000	      0.00000000	     -0.22133093	     54.09067678	     80.23520508	     44.32588186	      3.13701953	      2.61093405	     21.29383507	     -0.00000000	      6.55243053	     22.64649398	     -0.00000000
      1.90500000	     -0.00000000	     -0.22595939	     53.64293680	     81.11514341	     44.75808021	      3.52125994	      1.88843093	     20.67514619	     -0.00000000	      6.01637453	     22.00344138	     -0.00000000
      1.91000000	      0.00000000	     -0.23002123	     53.25362604	     81.88086056	     45.13448661	      3.88692013	      1.33003576	     19.78256329	     -0.00000000	      5.23189388	     21.33914034	     -0.00000000
      1.91500000	      0.00000000	     -0.23425739	     52.85110701	     82.67316354	     45.52427054	      4.29378959	      0.55004808	     19.15301508	     -0.00000000	      4.63535776	     20.68764164	     -0.00000000
